<?xml version="1.0" encoding="UTF-8"?>
<svg id="Layer_1" data-name="Layer 1" xmlns="http://www.w3.org/2000/svg" viewBox="0 0 199.7 208.45">
  <defs>
    <linearGradient id="brandGradient" x1="0%" y1="0%" x2="100%" y2="100%">
      <stop offset="0%" stop-color="#4EBABD"/>
      <stop offset="100%" stop-color="#2C7181"/>
    </linearGradient>
    <linearGradient id="brandGradientReverse" x1="100%" y1="0%" x2="0%" y2="100%">
      <stop offset="0%" stop-color="#2C7181"/>
      <stop offset="100%" stop-color="#4EBABD"/>
    </linearGradient>
  </defs>
  <g>
    <path fill="url(#brandGradient)" d="M148.29,129.13c-1.26,0-2.4.7-2.98,1.82-2.11,4.07-6.35,6.85-11.25,6.85s-9.14-2.78-11.24-6.85c-.58-1.11-1.72-1.82-2.98-1.82-2.52,0-4.15,2.67-2.99,4.91,3.22,6.22,9.72,10.47,17.21,10.47s13.99-4.25,17.21-10.47c1.16-2.23-.47-4.91-2.99-4.91"/>
    <path fill="url(#brandGradient)" d="M79.86,129.13c-1.26,0-2.4.7-2.98,1.82-2.11,4.07-6.35,6.85-11.25,6.85s-9.14-2.78-11.24-6.85c-.58-1.11-1.72-1.82-2.98-1.82-2.52,0-4.15,2.67-2.99,4.91,3.22,6.22,9.72,10.47,17.21,10.47s13.99-4.25,17.21-10.47c1.16-2.23-.47-4.91-2.99-4.91"/>
    <path fill="url(#brandGradient)" d="M122.38,158.03c-.95,0-1.86.39-2.51,1.09-4.96,5.42-12.09,8.82-20.02,8.82s-15.06-3.4-20.02-8.82c-.64-.7-1.56-1.09-2.51-1.09-2.98,0-4.57,3.54-2.56,5.74,6.22,6.8,15.15,11.06,25.09,11.06s18.87-4.27,25.09-11.06c2.01-2.2.41-5.74-2.56-5.74"/>
  </g>
  <path fill="url(#brandGradientReverse)" d="M175.62,94.75v-9.12c0-.7-.04-1.39-.08-2.08h-15.6c.07.68.11,1.38.11,2.08v83.4c0,13.14-10.69,23.83-23.85,23.83H62.78c-13.14,0-23.83-10.69-23.83-23.83v-85.36c0-.71.04-1.4.12-2.08h-15.58c-.04.69-.11,1.38-.11,2.08v11.1c-13.01.67-23.38,11.42-23.38,24.6v19.03c0,13.18,10.37,23.93,23.38,24.6v6.02c0,21.72,17.68,39.42,39.4,39.42h73.42c21.74,0,39.42-17.7,39.42-39.42v-6c13.33-.3,24.09-11.2,24.09-24.62v-19.03c0-13.42-10.75-24.32-24.09-24.62ZM23.38,148.77h-.97c-4.04,0-7.33-3.29-7.33-7.33v-23.63c0-4.05,3.29-7.34,7.33-7.34h.97v38.3ZM184.63,141.44c0,4.04-3.29,7.33-7.35,7.33h-1.68v-38.3h1.68c4.06,0,7.35,3.29,7.35,7.34v23.63Z"/>
  <path fill="url(#brandGradient)" d="M175.36,70.69v-12.13c0-21.49-23.49-48.15-56.95-53.43C113.46,2.02,106.7.08,99.23.01h0s-.03-.01-.04-.01c-.06,0-.12,0-.17,0-.06,0-.12,0-.18,0-.01,0-.03,0-.04,0h0c-7.47.08-14.24,2.02-19.19,5.14-33.46,5.28-56.95,31.94-56.95,53.43v12.13c-5.35,0-6.96,4.07-6.96,7.58,0,2.07.74,5.3,3.75,5.79h159.1c3.01-.49,3.75-3.72,3.75-5.79,0-3.5-1.61-7.58-6.96-7.58ZM160.53,70.69l-61.52.44-60.6-.44v-12.13c0-14.96,12.11-28.38,33.16-34.81-.06.45-.22.88-.22,1.34v17.23c0,2.44,3.12,4.43,6.96,4.43s6.96-1.98,6.96-4.43v-17.23c0-4.83,6.15-8.76,13.74-8.82,7.59.06,13.74,3.99,13.74,8.82v17.23c0,2.44,3.12,4.43,6.96,4.43s6.96-1.98,6.96-4.43v-17.23c0-.46-.16-.89-.22-1.34,21.06,6.43,34.08,19.85,34.08,34.81v12.13Z"/>
</svg>
