<?xml version="1.0" encoding="UTF-8"?>
<svg id="Layer_1" xmlns="http://www.w3.org/2000/svg" version="1.1" viewBox="0 0 350.89 38.72">
  <!-- Generator: Adobe Illustrator 30.1.0, SVG Export Plug-In . SVG Version: 2.1.1 Build 136)  -->
  <defs>
    <style>
      .st0 {
        fill: #fff;
      }
    </style>
  </defs>
  <path class="st0" d="M288.14,0c1.58.24,2.29.26,3.84.8,3.64,1.26,3.98,5.21,3.89,8.51l-7.91,1.85-.02-4.39h-25.29s-.02,8.31-.02,8.31h24.82c3.13.17,6.88.43,8.13,3.77.48,1.28.75,2.62.78,4.03.07,2.7.08,5.32,0,8.02-.04,1.44-.3,2.81-.81,4.11s-1.55,2.39-2.97,2.86c-1.24.41-2.57.81-3.97.81h-27.52c-1.43,0-2.8-.38-4.08-.81-3.77-1.27-3.84-6.06-3.8-9.38l7.92-1.63.02,4.57h27.32s0-8.83,0-8.83h-24.71c-3.09-.16-6.86-.39-8.14-3.69-.51-1.33-.77-2.72-.81-4.18-.07-2.29-.06-4.51,0-6.8.04-1.46.29-2.85.79-4.18,1.16-3.07,4.16-3.34,6.84-3.75h25.69Z"/>
  <polygon class="st0" points="237.53 0 237.46 6.6 206.89 6.59 206.88 15.23 224.74 15.24 224.73 21.83 206.88 21.84 206.89 31.43 237.84 31.43 237.84 38.72 197.9 38.71 197.83 0 237.53 0"/>
  <polygon class="st0" points="306.34 0 350.89 0 350.89 6.92 333.08 6.93 333.08 38.72 324.07 38.72 324.07 6.93 306.33 6.92 306.34 0"/>
  <polygon class="st0" points="161.07 21.85 143.87 21.85 143.88 31.1 173.7 31.1 173.71 38.12 135.21 38.11 135.21 .81 173.34 .8 173.35 7.16 143.88 7.16 143.88 15.48 161.06 15.48 161.07 21.85"/>
  <polygon class="st0" points="39.56 .61 48.26 .62 27.65 38.12 21.62 38.12 0 .62 9.93 .59 25.11 27.71 39.56 .61"/>
  <rect class="st0" x="58.44" y=".6" width="8.71" height="37.51"/>
  <polygon class="st0" points="120.52 38.12 92.83 38.12 101.13 31.35 120.52 31.35 120.52 38.12"/>
  <polygon class="st0" points="98.81 7.38 79.6 7.39 79.59 .66 107.02 .67 98.81 7.38"/>
  <path class="st0" d="M120.51,7.13l-14.71,11.85c-.38-2.5-1.92-4.47-4.39-5.3L117.77.47h2.73s.01,6.66.01,6.66Z"/>
  <path class="st0" d="M82.28,37.92l-2.79.04v-6.6s13.79-11.12,13.79-11.12c.32,2.58,1.87,4.51,4.25,5.4l-15.24,12.28Z"/>
  <path class="st0" d="M99.24,16.13c2.06-.17,3.71,1.38,3.86,3.29s-1.32,3.69-3.31,3.83-3.61-1.28-3.8-3.21,1.18-3.73,3.25-3.91Z"/>
</svg>